<svg xmlns="http://www.w3.org/2000/svg" width="595" height="120" fill="none"><path fill="#fff" d="M144.058 94.445v-51.46h12.411v12.108h.302v39.352h-12.713Zm34.609 0V61.248c0-3.027-.774-5.247-2.321-6.66-1.48-1.48-3.599-2.22-6.357-2.22-2.421 0-4.641.572-6.659 1.716-2.018 1.144-3.633 2.758-4.843 4.843-1.144 2.086-1.716 4.507-1.716 7.265l-1.311-11.805c1.748-3.767 4.271-6.76 7.567-8.98 3.296-2.287 7.13-3.431 11.503-3.431 5.247 0 9.384 1.514 12.411 4.54 3.027 2.96 4.54 6.794 4.54 11.503v36.426h-12.814Zm34.609 0V61.248c0-3.027-.74-5.247-2.22-6.66-1.48-1.48-3.599-2.22-6.357-2.22-2.489 0-4.742.572-6.76 1.716-2.018 1.144-3.599 2.758-4.743 4.843-1.143 2.086-1.715 4.507-1.715 7.265l-2.22-11.805c1.682-3.767 4.238-6.76 7.669-8.98 3.43-2.287 7.399-3.431 11.906-3.431 5.381 0 9.586 1.547 12.613 4.641 3.094 3.028 4.641 7.064 4.641 12.108v35.72h-12.814Zm54.854 0a37.48 37.48 0 0 1-.808-4.44c-.134-1.615-.201-3.565-.201-5.852h-.404V59.734c0-2.69-.774-4.708-2.321-6.053-1.48-1.413-3.767-2.12-6.861-2.12-3.027 0-5.449.572-7.265 1.716-1.749 1.076-2.825 2.657-3.229 4.742h-12.209c.538-4.776 2.826-8.644 6.862-11.603 4.036-2.96 9.451-4.44 16.245-4.44 7.063 0 12.41 1.614 16.043 4.843 3.632 3.162 5.448 7.837 5.448 14.025v23.309c0 1.614.101 3.262.303 4.944a63.389 63.389 0 0 0 1.11 5.348H268.13Zm-17.86 1.009c-5.179 0-9.316-1.279-12.411-3.835-3.027-2.623-4.54-6.121-4.54-10.493 0-4.71 1.715-8.443 5.146-11.2 3.43-2.758 8.274-4.608 14.529-5.55l16.044-2.422v8.072l-13.925 2.12c-3.027.47-5.314 1.311-6.861 2.522-1.48 1.21-2.22 2.892-2.22 5.045 0 1.95.707 3.464 2.119 4.54 1.413 1.01 3.364 1.514 5.852 1.514 3.633 0 6.66-.908 9.082-2.724 2.421-1.817 3.632-4.036 3.632-6.66l1.413 7.77c-1.346 3.7-3.566 6.524-6.66 8.475-3.027 1.884-6.76 2.826-11.2 2.826Zm61.833 20.684c-6.794 0-12.378-1.48-16.75-4.439-4.305-2.96-6.861-6.963-7.668-12.008h12.108c.605 1.749 1.917 3.095 3.935 4.036 2.085 1.009 4.776 1.514 8.072 1.514 4.776 0 8.307-1.076 10.595-3.229 2.287-2.085 3.43-5.28 3.43-9.586V81.327l.908.202c-.807 3.767-2.859 6.794-6.155 9.081-3.296 2.22-7.332 3.33-12.108 3.33-4.574 0-8.576-1.076-12.007-3.229-3.363-2.152-5.987-5.146-7.87-8.98-1.884-3.902-2.825-8.442-2.825-13.622 0-5.246.975-9.82 2.926-13.722 1.95-3.902 4.675-6.929 8.173-9.081 3.565-2.22 7.702-3.33 12.41-3.33 4.844 0 8.812 1.177 11.907 3.532 3.161 2.287 5.112 5.482 5.852 9.585l-.807.101V42.985h12.411v49.34c0 7.333-2.388 13.118-7.164 17.355-4.709 4.306-11.167 6.458-19.373 6.458Zm.504-32.288c4.103 0 7.366-1.38 9.788-4.137 2.488-2.825 3.733-6.76 3.733-11.805 0-5.046-1.245-8.947-3.733-11.705-2.489-2.758-5.785-4.137-9.889-4.137-4.036 0-7.298 1.413-9.787 4.238-2.489 2.758-3.733 6.66-3.733 11.704 0 5.046 1.244 8.947 3.733 11.705 2.489 2.758 5.785 4.137 9.888 4.137Zm37.545 10.595v-51.46h12.411v12.108h.302v39.352h-12.713Zm36.122 0v-32.49c0-3.162-.807-5.55-2.421-7.165-1.615-1.614-3.969-2.421-7.063-2.421-2.691 0-5.113.605-7.265 1.816-2.086 1.21-3.734 2.892-4.944 5.045-1.144 2.153-1.716 4.642-1.716 7.467l-1.311-12.31c1.749-3.767 4.305-6.76 7.668-8.98 3.363-2.287 7.399-3.431 12.108-3.431 5.583 0 9.922 1.58 13.016 4.742 3.162 3.162 4.743 7.366 4.743 12.613v35.114h-12.815Zm46.748 1.009c-5.448 0-10.224-1.144-14.328-3.431-4.036-2.287-7.197-5.449-9.484-9.485-2.22-4.036-3.33-8.677-3.33-13.924s1.11-9.855 3.33-13.824c2.287-4.036 5.448-7.164 9.484-9.383 4.036-2.287 8.745-3.431 14.126-3.431 5.113 0 9.552 1.076 13.319 3.229 3.767 2.085 6.693 5.045 8.779 8.88 2.085 3.833 3.128 8.307 3.128 13.419 0 .942-.034 1.816-.101 2.623a29.877 29.877 0 0 1-.303 2.422H413.75v-8.88h34.105l-2.624 2.422c0-4.843-1.11-8.475-3.33-10.897-2.219-2.422-5.314-3.632-9.282-3.632-4.306 0-7.736 1.48-10.292 4.44-2.489 2.959-3.734 7.23-3.734 12.814 0 5.516 1.245 9.753 3.734 12.713 2.556 2.893 6.155 4.339 10.796 4.339 2.691 0 5.045-.505 7.063-1.514s3.498-2.556 4.44-4.641h12.007c-1.682 4.843-4.541 8.677-8.577 11.503-3.968 2.825-8.98 4.238-15.034 4.238Zm54.542 0c-6.323 0-10.998-1.48-14.025-4.44-2.96-3.027-4.44-7.534-4.44-13.52V31.28l12.814-4.743v51.258c0 2.489.673 4.338 2.018 5.55 1.346 1.21 3.465 1.816 6.357 1.816 1.144 0 2.153-.068 3.027-.202a24.679 24.679 0 0 0 2.624-.706v9.888c-.808.403-1.951.706-3.431.908-1.48.269-3.128.404-4.944.404Zm-28.353-42.48v-9.989h36.728v9.99h-36.728Zm43.924 41.47V42.986h12.713v51.46h-12.713Zm-.606-59.935V20.484h13.824V34.51h-13.824Zm46.9 60.945c-5.179 0-9.753-1.144-13.722-3.431-3.902-2.287-6.996-5.449-9.283-9.485-2.22-4.103-3.33-8.745-3.33-13.924 0-5.18 1.11-9.754 3.33-13.723 2.287-4.036 5.381-7.197 9.283-9.484 3.969-2.287 8.543-3.431 13.722-3.431 4.238 0 8.073.807 11.503 2.422 3.431 1.547 6.256 3.767 8.476 6.66 2.22 2.824 3.632 6.12 4.238 9.887h-12.209c-.74-2.758-2.153-4.91-4.238-6.457-2.085-1.547-4.608-2.321-7.568-2.321-2.758 0-5.146.673-7.164 2.018-1.95 1.345-3.464 3.262-4.54 5.751-1.076 2.49-1.615 5.382-1.615 8.678 0 3.363.539 6.29 1.615 8.778 1.076 2.49 2.623 4.44 4.641 5.853 2.018 1.345 4.373 2.017 7.063 2.017 2.96 0 5.483-.773 7.568-2.32 2.085-1.547 3.498-3.7 4.238-6.458h12.209c-.606 3.767-2.052 7.097-4.339 9.99-2.22 2.825-5.045 5.044-8.476 6.659-3.363 1.547-7.164 2.32-11.402 2.32Z"/><mask id="a" width="103" height="92" x="17" y="14" maskUnits="userSpaceOnUse" style="mask-type:alpha"><path fill="#fff" fill-rule="evenodd" d="M32.913 72.288c0-17.075 15.718-31.351 35.676-31.351 19.957 0 35.675 14.276 35.675 31.351 0 8.076-3.478 15.475-9.268 21.075a32.68 32.68 0 0 1-1.206 1.11l2.852 3.25c.465-.407.918-.824 1.36-1.252 6.541-6.325 10.587-14.814 10.587-24.183 0-19.942-18.163-35.675-40-35.675-21.838 0-40 15.733-40 35.675 0 9.37 4.045 17.858 10.586 24.183.442.428.896.845 1.36 1.253l2.852-3.25a33.85 33.85 0 0 1-1.206-1.111c-5.79-5.6-9.268-13-9.268-21.075Z" clip-rule="evenodd"/><path fill="#fff" fill-rule="evenodd" d="M22.102 59.82c0-22.456 20.566-41.081 46.486-41.081 25.92 0 46.487 18.625 46.487 41.08 0 22.457-20.566 41.082-46.487 41.082-25.92 0-46.486-18.625-46.486-41.081Zm46.486-45.406c-27.815 0-50.81 20.097-50.81 45.406 0 25.309 22.995 45.405 50.81 45.405 27.816 0 50.811-20.096 50.811-45.405 0-25.31-22.995-45.406-50.81-45.406Z" clip-rule="evenodd"/><path fill="#fff" fill-rule="evenodd" d="M41.994 80.971c0-12.09 11.606-22.449 26.667-22.449 15.06 0 26.666 10.36 26.666 22.449 0 6.654-3.457 12.72-9.115 16.892l2.567 3.481c6.583-4.854 10.873-12.135 10.873-20.373 0-15.094-14.209-26.773-30.991-26.773-16.783 0-30.991 11.679-30.991 26.773 0 8.237 4.29 15.519 10.873 20.373l2.566-3.48c-5.658-4.173-9.115-10.239-9.115-16.893Z" clip-rule="evenodd"/></mask><g mask="url(#a)"><path fill="url(#b)" d="M-3.123-9.369h141.261v141.261H-3.123z"/></g><defs><linearGradient id="b" x1="67.507" x2="156.877" y1="-9.369" y2="131.892" gradientUnits="userSpaceOnUse"><stop stop-color="#7ED6DF"/><stop offset=".6" stop-color="#C8F2F2"/></linearGradient></defs></svg>