<svg xmlns="http://www.w3.org/2000/svg" width="64" height="64" fill="none"><mask id="a" width="58" height="52" x="3" y="6" maskUnits="userSpaceOnUse" style="mask-type:alpha"><path stroke="#fff" stroke-width="3.2" d="M46.578 51.868c.243-.213.48-.432.712-.656 3.422-3.309 5.51-7.718 5.51-12.559 0-10.272-9.402-18.6-21-18.6s-21 8.328-21 18.6c0 4.841 2.088 9.25 5.51 12.56.23.223.468.442.711.655"/><ellipse cx="24" cy="27" stroke="#fff" stroke-width="3.2" rx="24" ry="27" transform="matrix(0 1 1 0 4.8 7.733)"/><path stroke="#fff" stroke-width="3.2" d="M42.293 53.813c3.397-2.504 5.547-6.208 5.547-10.34 0-7.544-7.164-13.66-16-13.66-8.837 0-16 6.116-16 13.66 0 4.132 2.15 7.836 5.547 10.34"/></mask><g mask="url(#a)"><path fill="#000" d="M-8.4-7.067H70v78.4H-8.4z"/></g></svg>